<mxfile host="Electron" agent="Mozilla/5.0 (Windows NT 10.0; Win64; x64) AppleWebKit/537.36 (KHTML, like Gecko) draw.io/26.2.2 Chrome/134.0.6998.178 Electron/35.1.2 Safari/537.36" version="26.2.2">
  <diagram name="Page-1" id="umCVKsHhL6JN4frXIh-7">
    <mxGraphModel dx="185" dy="1835" grid="1" gridSize="10" guides="1" tooltips="1" connect="1" arrows="1" fold="1" page="0" pageScale="1" pageWidth="827" pageHeight="1169" math="0" shadow="0">
      <root>
        <mxCell id="0" />
        <mxCell id="1" parent="0" />
        <mxCell id="RlJ1LxmoNNV3T5dokcEm-36" value="Retrieval" style="shape=folder;fontStyle=1;tabWidth=110;tabHeight=30;tabPosition=left;html=1;boundedLbl=1;labelInHeader=1;container=1;collapsible=0;recursiveResize=0;whiteSpace=wrap;" parent="1" vertex="1">
          <mxGeometry x="1840" y="320" width="880" height="235" as="geometry" />
        </mxCell>
        <mxCell id="RlJ1LxmoNNV3T5dokcEm-58" style="edgeStyle=orthogonalEdgeStyle;shape=connector;rounded=0;orthogonalLoop=1;jettySize=auto;html=1;entryX=1;entryY=0.5;entryDx=0;entryDy=0;strokeColor=default;align=center;verticalAlign=middle;fontFamily=Helvetica;fontSize=11;fontColor=default;labelBackgroundColor=default;startArrow=classic;startFill=1;endArrow=none;endFill=0;" parent="RlJ1LxmoNNV3T5dokcEm-36" source="RlJ1LxmoNNV3T5dokcEm-5" target="RlJ1LxmoNNV3T5dokcEm-48" edge="1">
          <mxGeometry relative="1" as="geometry" />
        </mxCell>
        <mxCell id="RlJ1LxmoNNV3T5dokcEm-5" value="&lt;b&gt;VecRetriever&lt;/b&gt;" style="html=1;dropTarget=0;whiteSpace=wrap;" parent="RlJ1LxmoNNV3T5dokcEm-36" vertex="1">
          <mxGeometry x="250" y="65" width="160" height="50" as="geometry" />
        </mxCell>
        <mxCell id="RlJ1LxmoNNV3T5dokcEm-6" value="" style="shape=module;jettyWidth=8;jettyHeight=4;" parent="RlJ1LxmoNNV3T5dokcEm-5" vertex="1">
          <mxGeometry x="1" width="20" height="20" relative="1" as="geometry">
            <mxPoint x="-27" y="7" as="offset" />
          </mxGeometry>
        </mxCell>
        <mxCell id="RlJ1LxmoNNV3T5dokcEm-59" style="edgeStyle=orthogonalEdgeStyle;shape=connector;rounded=0;orthogonalLoop=1;jettySize=auto;html=1;entryX=1;entryY=0.5;entryDx=0;entryDy=0;strokeColor=default;align=center;verticalAlign=middle;fontFamily=Helvetica;fontSize=11;fontColor=default;labelBackgroundColor=default;startArrow=classic;startFill=1;endArrow=none;endFill=0;" parent="RlJ1LxmoNNV3T5dokcEm-36" source="RlJ1LxmoNNV3T5dokcEm-8" target="RlJ1LxmoNNV3T5dokcEm-48" edge="1">
          <mxGeometry relative="1" as="geometry" />
        </mxCell>
        <mxCell id="RlJ1LxmoNNV3T5dokcEm-8" value="&lt;b&gt;KGRetriever&lt;/b&gt;" style="html=1;dropTarget=0;whiteSpace=wrap;" parent="RlJ1LxmoNNV3T5dokcEm-36" vertex="1">
          <mxGeometry x="250" y="140" width="160" height="50" as="geometry" />
        </mxCell>
        <mxCell id="RlJ1LxmoNNV3T5dokcEm-9" value="" style="shape=module;jettyWidth=8;jettyHeight=4;" parent="RlJ1LxmoNNV3T5dokcEm-8" vertex="1">
          <mxGeometry x="1" width="20" height="20" relative="1" as="geometry">
            <mxPoint x="-27" y="7" as="offset" />
          </mxGeometry>
        </mxCell>
        <mxCell id="RlJ1LxmoNNV3T5dokcEm-61" style="edgeStyle=orthogonalEdgeStyle;shape=connector;rounded=0;orthogonalLoop=1;jettySize=auto;html=1;entryX=1;entryY=0.5;entryDx=0;entryDy=0;strokeColor=default;align=center;verticalAlign=middle;fontFamily=Helvetica;fontSize=11;fontColor=default;labelBackgroundColor=default;startArrow=classic;startFill=1;endArrow=none;endFill=0;" parent="RlJ1LxmoNNV3T5dokcEm-36" source="RlJ1LxmoNNV3T5dokcEm-20" target="RlJ1LxmoNNV3T5dokcEm-8" edge="1">
          <mxGeometry relative="1" as="geometry" />
        </mxCell>
        <mxCell id="RlJ1LxmoNNV3T5dokcEm-20" value="&lt;b&gt;KGProvider&lt;/b&gt;" style="html=1;dropTarget=0;whiteSpace=wrap;" parent="RlJ1LxmoNNV3T5dokcEm-36" vertex="1">
          <mxGeometry x="460" y="140" width="160" height="50" as="geometry" />
        </mxCell>
        <mxCell id="RlJ1LxmoNNV3T5dokcEm-21" value="" style="shape=module;jettyWidth=8;jettyHeight=4;" parent="RlJ1LxmoNNV3T5dokcEm-20" vertex="1">
          <mxGeometry x="1" width="20" height="20" relative="1" as="geometry">
            <mxPoint x="-27" y="7" as="offset" />
          </mxGeometry>
        </mxCell>
        <mxCell id="RlJ1LxmoNNV3T5dokcEm-63" style="edgeStyle=orthogonalEdgeStyle;shape=connector;rounded=0;orthogonalLoop=1;jettySize=auto;html=1;entryX=1;entryY=0.5;entryDx=0;entryDy=0;strokeColor=default;align=center;verticalAlign=middle;fontFamily=Helvetica;fontSize=11;fontColor=default;labelBackgroundColor=default;startArrow=classic;startFill=1;endArrow=none;endFill=0;" parent="RlJ1LxmoNNV3T5dokcEm-36" source="RlJ1LxmoNNV3T5dokcEm-22" target="RlJ1LxmoNNV3T5dokcEm-20" edge="1">
          <mxGeometry relative="1" as="geometry" />
        </mxCell>
        <mxCell id="RlJ1LxmoNNV3T5dokcEm-22" value="&lt;b&gt;KnowledgeGraph&lt;/b&gt;" style="html=1;dropTarget=0;whiteSpace=wrap;" parent="RlJ1LxmoNNV3T5dokcEm-36" vertex="1">
          <mxGeometry x="670" y="140" width="160" height="50" as="geometry" />
        </mxCell>
        <mxCell id="RlJ1LxmoNNV3T5dokcEm-23" value="" style="shape=module;jettyWidth=8;jettyHeight=4;" parent="RlJ1LxmoNNV3T5dokcEm-22" vertex="1">
          <mxGeometry x="1" width="20" height="20" relative="1" as="geometry">
            <mxPoint x="-27" y="7" as="offset" />
          </mxGeometry>
        </mxCell>
        <mxCell id="RlJ1LxmoNNV3T5dokcEm-62" style="edgeStyle=orthogonalEdgeStyle;shape=connector;rounded=0;orthogonalLoop=1;jettySize=auto;html=1;entryX=1;entryY=0.5;entryDx=0;entryDy=0;strokeColor=default;align=center;verticalAlign=middle;fontFamily=Helvetica;fontSize=11;fontColor=default;labelBackgroundColor=default;startArrow=classic;startFill=1;endArrow=none;endFill=0;" parent="RlJ1LxmoNNV3T5dokcEm-36" source="RlJ1LxmoNNV3T5dokcEm-24" target="RlJ1LxmoNNV3T5dokcEm-26" edge="1">
          <mxGeometry relative="1" as="geometry" />
        </mxCell>
        <mxCell id="RlJ1LxmoNNV3T5dokcEm-24" value="&lt;b&gt;VectorStore&lt;/b&gt;" style="html=1;dropTarget=0;whiteSpace=wrap;" parent="RlJ1LxmoNNV3T5dokcEm-36" vertex="1">
          <mxGeometry x="670" y="65" width="160" height="50" as="geometry" />
        </mxCell>
        <mxCell id="RlJ1LxmoNNV3T5dokcEm-25" value="" style="shape=module;jettyWidth=8;jettyHeight=4;" parent="RlJ1LxmoNNV3T5dokcEm-24" vertex="1">
          <mxGeometry x="1" width="20" height="20" relative="1" as="geometry">
            <mxPoint x="-27" y="7" as="offset" />
          </mxGeometry>
        </mxCell>
        <mxCell id="RlJ1LxmoNNV3T5dokcEm-60" style="edgeStyle=orthogonalEdgeStyle;shape=connector;rounded=0;orthogonalLoop=1;jettySize=auto;html=1;entryX=1;entryY=0.5;entryDx=0;entryDy=0;strokeColor=default;align=center;verticalAlign=middle;fontFamily=Helvetica;fontSize=11;fontColor=default;labelBackgroundColor=default;startArrow=classic;startFill=1;endArrow=none;endFill=0;" parent="RlJ1LxmoNNV3T5dokcEm-36" source="RlJ1LxmoNNV3T5dokcEm-26" target="RlJ1LxmoNNV3T5dokcEm-5" edge="1">
          <mxGeometry relative="1" as="geometry" />
        </mxCell>
        <mxCell id="RlJ1LxmoNNV3T5dokcEm-26" value="&lt;b&gt;VecProvider&lt;/b&gt;" style="html=1;dropTarget=0;whiteSpace=wrap;" parent="RlJ1LxmoNNV3T5dokcEm-36" vertex="1">
          <mxGeometry x="460" y="65" width="160" height="50" as="geometry" />
        </mxCell>
        <mxCell id="RlJ1LxmoNNV3T5dokcEm-27" value="" style="shape=module;jettyWidth=8;jettyHeight=4;" parent="RlJ1LxmoNNV3T5dokcEm-26" vertex="1">
          <mxGeometry x="1" width="20" height="20" relative="1" as="geometry">
            <mxPoint x="-27" y="7" as="offset" />
          </mxGeometry>
        </mxCell>
        <mxCell id="RlJ1LxmoNNV3T5dokcEm-48" value="&lt;b&gt;RetrievalPipe&lt;/b&gt;" style="html=1;dropTarget=0;whiteSpace=wrap;" parent="RlJ1LxmoNNV3T5dokcEm-36" vertex="1">
          <mxGeometry x="30" y="105" width="160" height="50" as="geometry" />
        </mxCell>
        <mxCell id="RlJ1LxmoNNV3T5dokcEm-49" value="" style="shape=module;jettyWidth=8;jettyHeight=4;" parent="RlJ1LxmoNNV3T5dokcEm-48" vertex="1">
          <mxGeometry x="1" width="20" height="20" relative="1" as="geometry">
            <mxPoint x="-27" y="7" as="offset" />
          </mxGeometry>
        </mxCell>
        <mxCell id="RlJ1LxmoNNV3T5dokcEm-38" value="Pipelines" style="shape=folder;fontStyle=1;tabWidth=110;tabHeight=30;tabPosition=left;html=1;boundedLbl=1;labelInHeader=1;container=1;collapsible=0;recursiveResize=0;whiteSpace=wrap;" parent="1" vertex="1">
          <mxGeometry x="1880" y="-110" width="230" height="350" as="geometry" />
        </mxCell>
        <mxCell id="RlJ1LxmoNNV3T5dokcEm-67" style="edgeStyle=orthogonalEdgeStyle;shape=connector;rounded=0;orthogonalLoop=1;jettySize=auto;html=1;strokeColor=default;align=center;verticalAlign=middle;fontFamily=Helvetica;fontSize=11;fontColor=default;labelBackgroundColor=default;startArrow=classic;startFill=1;endArrow=none;endFill=0;exitX=0.5;exitY=1;exitDx=0;exitDy=0;" parent="RlJ1LxmoNNV3T5dokcEm-38" source="RlJ1LxmoNNV3T5dokcEm-12" target="RlJ1LxmoNNV3T5dokcEm-46" edge="1">
          <mxGeometry relative="1" as="geometry" />
        </mxCell>
        <mxCell id="RlJ1LxmoNNV3T5dokcEm-12" value="&lt;b&gt;RetrievalPipeline&lt;/b&gt;" style="html=1;dropTarget=0;whiteSpace=wrap;" parent="RlJ1LxmoNNV3T5dokcEm-38" vertex="1">
          <mxGeometry x="30" y="60" width="160" height="50" as="geometry" />
        </mxCell>
        <mxCell id="RlJ1LxmoNNV3T5dokcEm-13" value="" style="shape=module;jettyWidth=8;jettyHeight=4;" parent="RlJ1LxmoNNV3T5dokcEm-12" vertex="1">
          <mxGeometry x="1" width="20" height="20" relative="1" as="geometry">
            <mxPoint x="-27" y="7" as="offset" />
          </mxGeometry>
        </mxCell>
        <mxCell id="RlJ1LxmoNNV3T5dokcEm-46" value="&lt;b&gt;PipelineFactory&lt;/b&gt;" style="html=1;dropTarget=0;whiteSpace=wrap;" parent="RlJ1LxmoNNV3T5dokcEm-38" vertex="1">
          <mxGeometry x="30" y="170" width="160" height="50" as="geometry" />
        </mxCell>
        <mxCell id="RlJ1LxmoNNV3T5dokcEm-47" value="" style="shape=module;jettyWidth=8;jettyHeight=4;" parent="RlJ1LxmoNNV3T5dokcEm-46" vertex="1">
          <mxGeometry x="1" width="20" height="20" relative="1" as="geometry">
            <mxPoint x="-27" y="7" as="offset" />
          </mxGeometry>
        </mxCell>
        <mxCell id="RlJ1LxmoNNV3T5dokcEm-74" value="&lt;b&gt;PipeFactory&lt;/b&gt;" style="html=1;dropTarget=0;whiteSpace=wrap;" parent="RlJ1LxmoNNV3T5dokcEm-38" vertex="1">
          <mxGeometry x="30" y="280" width="160" height="50" as="geometry" />
        </mxCell>
        <mxCell id="RlJ1LxmoNNV3T5dokcEm-75" value="" style="shape=module;jettyWidth=8;jettyHeight=4;" parent="RlJ1LxmoNNV3T5dokcEm-74" vertex="1">
          <mxGeometry x="1" width="20" height="20" relative="1" as="geometry">
            <mxPoint x="-27" y="7" as="offset" />
          </mxGeometry>
        </mxCell>
        <mxCell id="RlJ1LxmoNNV3T5dokcEm-78" style="edgeStyle=orthogonalEdgeStyle;shape=connector;rounded=0;orthogonalLoop=1;jettySize=auto;html=1;strokeColor=default;align=center;verticalAlign=middle;fontFamily=Helvetica;fontSize=11;fontColor=default;labelBackgroundColor=default;startArrow=none;startFill=0;endArrow=classic;endFill=1;" parent="RlJ1LxmoNNV3T5dokcEm-38" source="RlJ1LxmoNNV3T5dokcEm-46" target="RlJ1LxmoNNV3T5dokcEm-74" edge="1">
          <mxGeometry relative="1" as="geometry" />
        </mxCell>
        <mxCell id="RlJ1LxmoNNV3T5dokcEm-83" value="uses" style="edgeLabel;html=1;align=center;verticalAlign=middle;resizable=0;points=[];fontFamily=Helvetica;fontSize=11;fontColor=default;labelBackgroundColor=default;" parent="RlJ1LxmoNNV3T5dokcEm-78" vertex="1" connectable="0">
          <mxGeometry x="-0.4419" y="3" relative="1" as="geometry">
            <mxPoint as="offset" />
          </mxGeometry>
        </mxCell>
        <mxCell id="c6rv0-CbIbIfdMLlh0Rp-22" value="App" style="shape=folder;fontStyle=1;tabWidth=110;tabHeight=30;tabPosition=left;html=1;boundedLbl=1;labelInHeader=1;container=1;collapsible=0;recursiveResize=0;whiteSpace=wrap;" parent="1" vertex="1">
          <mxGeometry x="1650" y="-500" width="690" height="120" as="geometry" />
        </mxCell>
        <mxCell id="c6rv0-CbIbIfdMLlh0Rp-36" value="&lt;b&gt;Webserver&lt;/b&gt;" style="html=1;dropTarget=0;whiteSpace=wrap;" parent="c6rv0-CbIbIfdMLlh0Rp-22" vertex="1">
          <mxGeometry x="36" y="50" width="130" height="50" as="geometry" />
        </mxCell>
        <mxCell id="c6rv0-CbIbIfdMLlh0Rp-37" value="" style="shape=module;jettyWidth=8;jettyHeight=4;" parent="c6rv0-CbIbIfdMLlh0Rp-36" vertex="1">
          <mxGeometry x="1" width="20" height="20" relative="1" as="geometry">
            <mxPoint x="-27" y="7" as="offset" />
          </mxGeometry>
        </mxCell>
        <mxCell id="0arSnTIY1_6R8fimPSZV-3" value="uses" style="edgeStyle=orthogonalEdgeStyle;rounded=0;orthogonalLoop=1;jettySize=auto;html=1;exitX=1;exitY=0.25;exitDx=0;exitDy=0;entryX=0;entryY=0.25;entryDx=0;entryDy=0;" parent="c6rv0-CbIbIfdMLlh0Rp-22" source="RlJ1LxmoNNV3T5dokcEm-94" target="0arSnTIY1_6R8fimPSZV-1" edge="1">
          <mxGeometry relative="1" as="geometry" />
        </mxCell>
        <mxCell id="RlJ1LxmoNNV3T5dokcEm-94" value="&lt;b&gt;CLIController&lt;/b&gt;" style="html=1;dropTarget=0;whiteSpace=wrap;" parent="c6rv0-CbIbIfdMLlh0Rp-22" vertex="1">
          <mxGeometry x="200" y="50" width="160" height="50" as="geometry" />
        </mxCell>
        <mxCell id="RlJ1LxmoNNV3T5dokcEm-95" value="" style="shape=module;jettyWidth=8;jettyHeight=4;" parent="RlJ1LxmoNNV3T5dokcEm-94" vertex="1">
          <mxGeometry x="1" width="20" height="20" relative="1" as="geometry">
            <mxPoint x="-27" y="7" as="offset" />
          </mxGeometry>
        </mxCell>
        <mxCell id="0arSnTIY1_6R8fimPSZV-1" value="&lt;b&gt;QASystem&lt;/b&gt;" style="html=1;dropTarget=0;whiteSpace=wrap;" parent="c6rv0-CbIbIfdMLlh0Rp-22" vertex="1">
          <mxGeometry x="490" y="50" width="160" height="50" as="geometry" />
        </mxCell>
        <mxCell id="0arSnTIY1_6R8fimPSZV-2" value="" style="shape=module;jettyWidth=8;jettyHeight=4;" parent="0arSnTIY1_6R8fimPSZV-1" vertex="1">
          <mxGeometry x="1" width="20" height="20" relative="1" as="geometry">
            <mxPoint x="-27" y="7" as="offset" />
          </mxGeometry>
        </mxCell>
        <mxCell id="c6rv0-CbIbIfdMLlh0Rp-38" value="APIService" style="shape=folder;fontStyle=1;tabWidth=110;tabHeight=30;tabPosition=left;html=1;boundedLbl=1;labelInHeader=1;container=1;collapsible=0;recursiveResize=0;whiteSpace=wrap;" parent="1" vertex="1">
          <mxGeometry x="1480" y="-300" width="220" height="230" as="geometry" />
        </mxCell>
        <mxCell id="c6rv0-CbIbIfdMLlh0Rp-39" value="&lt;b&gt;QuestionRouter&lt;/b&gt;" style="html=1;dropTarget=0;whiteSpace=wrap;" parent="c6rv0-CbIbIfdMLlh0Rp-38" vertex="1">
          <mxGeometry x="30" y="140" width="160" height="50" as="geometry" />
        </mxCell>
        <mxCell id="c6rv0-CbIbIfdMLlh0Rp-40" value="" style="shape=module;jettyWidth=8;jettyHeight=4;" parent="c6rv0-CbIbIfdMLlh0Rp-39" vertex="1">
          <mxGeometry x="1" width="20" height="20" relative="1" as="geometry">
            <mxPoint x="-27" y="7" as="offset" />
          </mxGeometry>
        </mxCell>
        <mxCell id="0arSnTIY1_6R8fimPSZV-7" value="" style="edgeStyle=orthogonalEdgeStyle;rounded=0;orthogonalLoop=1;jettySize=auto;html=1;" parent="c6rv0-CbIbIfdMLlh0Rp-38" source="0arSnTIY1_6R8fimPSZV-5" target="c6rv0-CbIbIfdMLlh0Rp-39" edge="1">
          <mxGeometry relative="1" as="geometry" />
        </mxCell>
        <mxCell id="0arSnTIY1_6R8fimPSZV-5" value="&lt;b&gt;ApiService&lt;/b&gt;" style="html=1;dropTarget=0;whiteSpace=wrap;" parent="c6rv0-CbIbIfdMLlh0Rp-38" vertex="1">
          <mxGeometry x="30" y="60" width="160" height="50" as="geometry" />
        </mxCell>
        <mxCell id="0arSnTIY1_6R8fimPSZV-6" value="" style="shape=module;jettyWidth=8;jettyHeight=4;" parent="0arSnTIY1_6R8fimPSZV-5" vertex="1">
          <mxGeometry x="1" width="20" height="20" relative="1" as="geometry">
            <mxPoint x="-27" y="7" as="offset" />
          </mxGeometry>
        </mxCell>
        <mxCell id="c6rv0-CbIbIfdMLlh0Rp-45" value="" style="rounded=0;orthogonalLoop=1;jettySize=auto;html=1;entryX=0.75;entryY=0;entryDx=0;entryDy=0;exitX=0.5;exitY=1;exitDx=0;exitDy=0;startArrow=classic;startFill=1;edgeStyle=orthogonalEdgeStyle;" parent="1" source="c6rv0-CbIbIfdMLlh0Rp-36" target="0arSnTIY1_6R8fimPSZV-5" edge="1">
          <mxGeometry relative="1" as="geometry" />
        </mxCell>
        <mxCell id="RlJ1LxmoNNV3T5dokcEm-28" value="Generation" style="shape=folder;fontStyle=1;tabWidth=110;tabHeight=30;tabPosition=left;html=1;boundedLbl=1;labelInHeader=1;container=1;collapsible=0;recursiveResize=0;whiteSpace=wrap;" parent="1" vertex="1">
          <mxGeometry x="2290" y="110" width="440" height="140" as="geometry" />
        </mxCell>
        <mxCell id="RlJ1LxmoNNV3T5dokcEm-90" style="edgeStyle=orthogonalEdgeStyle;shape=connector;rounded=0;orthogonalLoop=1;jettySize=auto;html=1;entryX=0;entryY=0.5;entryDx=0;entryDy=0;strokeColor=default;align=center;verticalAlign=middle;fontFamily=Helvetica;fontSize=11;fontColor=default;labelBackgroundColor=default;startArrow=none;startFill=0;endArrow=classic;endFill=1;" parent="RlJ1LxmoNNV3T5dokcEm-28" source="RlJ1LxmoNNV3T5dokcEm-52" target="RlJ1LxmoNNV3T5dokcEm-18" edge="1">
          <mxGeometry relative="1" as="geometry" />
        </mxCell>
        <mxCell id="RlJ1LxmoNNV3T5dokcEm-52" value="&lt;b&gt;GenerationPipe&lt;/b&gt;" style="html=1;dropTarget=0;whiteSpace=wrap;" parent="RlJ1LxmoNNV3T5dokcEm-28" vertex="1">
          <mxGeometry x="30" y="60" width="160" height="50" as="geometry" />
        </mxCell>
        <mxCell id="RlJ1LxmoNNV3T5dokcEm-53" value="" style="shape=module;jettyWidth=8;jettyHeight=4;" parent="RlJ1LxmoNNV3T5dokcEm-52" vertex="1">
          <mxGeometry x="1" width="20" height="20" relative="1" as="geometry">
            <mxPoint x="-27" y="7" as="offset" />
          </mxGeometry>
        </mxCell>
        <mxCell id="RlJ1LxmoNNV3T5dokcEm-18" value="&lt;b&gt;LLMProvider&lt;/b&gt;" style="html=1;dropTarget=0;whiteSpace=wrap;" parent="RlJ1LxmoNNV3T5dokcEm-28" vertex="1">
          <mxGeometry x="250" y="60" width="160" height="50" as="geometry" />
        </mxCell>
        <mxCell id="RlJ1LxmoNNV3T5dokcEm-19" value="" style="shape=module;jettyWidth=8;jettyHeight=4;" parent="RlJ1LxmoNNV3T5dokcEm-18" vertex="1">
          <mxGeometry x="1" width="20" height="20" relative="1" as="geometry">
            <mxPoint x="-27" y="7" as="offset" />
          </mxGeometry>
        </mxCell>
        <mxCell id="RlJ1LxmoNNV3T5dokcEm-35" value="Data.Generation" style="shape=folder;fontStyle=1;tabWidth=150;tabHeight=30;tabPosition=left;html=1;boundedLbl=1;labelInHeader=1;container=1;collapsible=0;recursiveResize=0;whiteSpace=wrap;" parent="1" vertex="1">
          <mxGeometry x="2290" y="-320" width="210" height="120" as="geometry" />
        </mxCell>
        <mxCell id="RlJ1LxmoNNV3T5dokcEm-92" value="&lt;b&gt;QAGenerator&lt;/b&gt;" style="html=1;dropTarget=0;whiteSpace=wrap;" parent="RlJ1LxmoNNV3T5dokcEm-35" vertex="1">
          <mxGeometry x="20" y="50" width="160" height="50" as="geometry" />
        </mxCell>
        <mxCell id="RlJ1LxmoNNV3T5dokcEm-93" value="" style="shape=module;jettyWidth=8;jettyHeight=4;" parent="RlJ1LxmoNNV3T5dokcEm-92" vertex="1">
          <mxGeometry x="1" width="20" height="20" relative="1" as="geometry">
            <mxPoint x="-27" y="7" as="offset" />
          </mxGeometry>
        </mxCell>
        <mxCell id="RlJ1LxmoNNV3T5dokcEm-39" style="edgeStyle=orthogonalEdgeStyle;rounded=0;orthogonalLoop=1;jettySize=auto;html=1;startArrow=classic;startFill=1;entryX=0;entryY=0.5;entryDx=0;entryDy=0;exitX=0.5;exitY=1;exitDx=0;exitDy=0;" parent="1" source="c6rv0-CbIbIfdMLlh0Rp-39" target="RlJ1LxmoNNV3T5dokcEm-12" edge="1">
          <mxGeometry relative="1" as="geometry" />
        </mxCell>
        <mxCell id="RlJ1LxmoNNV3T5dokcEm-42" value="Configs" style="shape=folder;fontStyle=1;tabWidth=110;tabHeight=30;tabPosition=left;html=1;boundedLbl=1;labelInHeader=1;container=1;collapsible=0;recursiveResize=0;whiteSpace=wrap;" parent="1" vertex="1">
          <mxGeometry x="1480" y="10" width="210" height="120" as="geometry" />
        </mxCell>
        <mxCell id="RlJ1LxmoNNV3T5dokcEm-43" value="&lt;b&gt;PipelineConfig&lt;/b&gt;" style="html=1;dropTarget=0;whiteSpace=wrap;" parent="RlJ1LxmoNNV3T5dokcEm-42" vertex="1">
          <mxGeometry x="20" y="50" width="160" height="50" as="geometry" />
        </mxCell>
        <mxCell id="RlJ1LxmoNNV3T5dokcEm-44" value="" style="shape=module;jettyWidth=8;jettyHeight=4;" parent="RlJ1LxmoNNV3T5dokcEm-43" vertex="1">
          <mxGeometry x="1" width="20" height="20" relative="1" as="geometry">
            <mxPoint x="-27" y="7" as="offset" />
          </mxGeometry>
        </mxCell>
        <mxCell id="RlJ1LxmoNNV3T5dokcEm-66" value="Processing" style="shape=folder;fontStyle=1;tabWidth=110;tabHeight=30;tabPosition=left;html=1;boundedLbl=1;labelInHeader=1;container=1;collapsible=0;recursiveResize=0;whiteSpace=wrap;" parent="1" vertex="1">
          <mxGeometry x="1480" y="220" width="215" height="200" as="geometry" />
        </mxCell>
        <mxCell id="RlJ1LxmoNNV3T5dokcEm-50" value="&lt;b&gt;PreProcessingPipe&lt;/b&gt;" style="html=1;dropTarget=0;whiteSpace=wrap;" parent="RlJ1LxmoNNV3T5dokcEm-66" vertex="1">
          <mxGeometry x="25" y="50" width="160" height="50" as="geometry" />
        </mxCell>
        <mxCell id="RlJ1LxmoNNV3T5dokcEm-51" value="" style="shape=module;jettyWidth=8;jettyHeight=4;" parent="RlJ1LxmoNNV3T5dokcEm-50" vertex="1">
          <mxGeometry x="1" width="20" height="20" relative="1" as="geometry">
            <mxPoint x="-27" y="7" as="offset" />
          </mxGeometry>
        </mxCell>
        <mxCell id="RlJ1LxmoNNV3T5dokcEm-76" value="&lt;b&gt;PostProcessingPipe&lt;/b&gt;" style="html=1;dropTarget=0;whiteSpace=wrap;" parent="RlJ1LxmoNNV3T5dokcEm-66" vertex="1">
          <mxGeometry x="25" y="120" width="160" height="50" as="geometry" />
        </mxCell>
        <mxCell id="RlJ1LxmoNNV3T5dokcEm-77" value="" style="shape=module;jettyWidth=8;jettyHeight=4;" parent="RlJ1LxmoNNV3T5dokcEm-76" vertex="1">
          <mxGeometry x="1" width="20" height="20" relative="1" as="geometry">
            <mxPoint x="-27" y="7" as="offset" />
          </mxGeometry>
        </mxCell>
        <mxCell id="RlJ1LxmoNNV3T5dokcEm-70" style="edgeStyle=orthogonalEdgeStyle;shape=connector;rounded=0;orthogonalLoop=1;jettySize=auto;html=1;entryX=1;entryY=0.5;entryDx=0;entryDy=0;strokeColor=default;align=center;verticalAlign=middle;fontFamily=Helvetica;fontSize=11;fontColor=default;labelBackgroundColor=default;startArrow=none;startFill=0;endArrow=classic;endFill=1;" parent="1" source="RlJ1LxmoNNV3T5dokcEm-46" target="RlJ1LxmoNNV3T5dokcEm-43" edge="1">
          <mxGeometry relative="1" as="geometry" />
        </mxCell>
        <mxCell id="RlJ1LxmoNNV3T5dokcEm-71" value="uses" style="edgeLabel;html=1;align=center;verticalAlign=middle;resizable=0;points=[];fontFamily=Helvetica;fontSize=11;fontColor=default;labelBackgroundColor=default;" parent="RlJ1LxmoNNV3T5dokcEm-70" vertex="1" connectable="0">
          <mxGeometry x="-0.0362" relative="1" as="geometry">
            <mxPoint as="offset" />
          </mxGeometry>
        </mxCell>
        <mxCell id="RlJ1LxmoNNV3T5dokcEm-79" style="edgeStyle=orthogonalEdgeStyle;shape=connector;rounded=0;orthogonalLoop=1;jettySize=auto;html=1;entryX=1;entryY=0.5;entryDx=0;entryDy=0;strokeColor=default;align=center;verticalAlign=middle;fontFamily=Helvetica;fontSize=11;fontColor=default;labelBackgroundColor=default;startArrow=none;startFill=0;endArrow=classic;endFill=1;" parent="1" source="RlJ1LxmoNNV3T5dokcEm-74" target="RlJ1LxmoNNV3T5dokcEm-50" edge="1">
          <mxGeometry relative="1" as="geometry" />
        </mxCell>
        <mxCell id="RlJ1LxmoNNV3T5dokcEm-80" style="edgeStyle=orthogonalEdgeStyle;shape=connector;rounded=0;orthogonalLoop=1;jettySize=auto;html=1;entryX=1;entryY=0.5;entryDx=0;entryDy=0;strokeColor=default;align=center;verticalAlign=middle;fontFamily=Helvetica;fontSize=11;fontColor=default;labelBackgroundColor=default;startArrow=none;startFill=0;endArrow=classic;endFill=1;" parent="1" source="RlJ1LxmoNNV3T5dokcEm-74" target="RlJ1LxmoNNV3T5dokcEm-76" edge="1">
          <mxGeometry relative="1" as="geometry" />
        </mxCell>
        <mxCell id="RlJ1LxmoNNV3T5dokcEm-81" style="edgeStyle=orthogonalEdgeStyle;shape=connector;rounded=0;orthogonalLoop=1;jettySize=auto;html=1;entryX=0;entryY=0.5;entryDx=0;entryDy=0;strokeColor=default;align=center;verticalAlign=middle;fontFamily=Helvetica;fontSize=11;fontColor=default;labelBackgroundColor=default;startArrow=none;startFill=0;endArrow=classic;endFill=1;" parent="1" source="RlJ1LxmoNNV3T5dokcEm-74" target="RlJ1LxmoNNV3T5dokcEm-52" edge="1">
          <mxGeometry relative="1" as="geometry" />
        </mxCell>
        <mxCell id="RlJ1LxmoNNV3T5dokcEm-82" style="edgeStyle=orthogonalEdgeStyle;shape=connector;rounded=0;orthogonalLoop=1;jettySize=auto;html=1;entryX=0.75;entryY=0;entryDx=0;entryDy=0;strokeColor=default;align=center;verticalAlign=middle;fontFamily=Helvetica;fontSize=11;fontColor=default;labelBackgroundColor=default;startArrow=none;startFill=0;endArrow=classic;endFill=1;exitX=0.5;exitY=1;exitDx=0;exitDy=0;" parent="1" source="RlJ1LxmoNNV3T5dokcEm-74" target="RlJ1LxmoNNV3T5dokcEm-48" edge="1">
          <mxGeometry relative="1" as="geometry" />
        </mxCell>
        <mxCell id="RlJ1LxmoNNV3T5dokcEm-101" style="edgeStyle=orthogonalEdgeStyle;shape=connector;rounded=0;orthogonalLoop=1;jettySize=auto;html=1;entryX=0;entryY=0.25;entryDx=0;entryDy=0;strokeColor=default;align=center;verticalAlign=middle;fontFamily=Helvetica;fontSize=11;fontColor=default;labelBackgroundColor=default;startArrow=none;startFill=0;endArrow=classic;endFill=1;exitX=0.75;exitY=1;exitDx=0;exitDy=0;" parent="1" source="RlJ1LxmoNNV3T5dokcEm-94" target="RlJ1LxmoNNV3T5dokcEm-92" edge="1">
          <mxGeometry relative="1" as="geometry" />
        </mxCell>
        <mxCell id="nBktnoozZhkjOSuf-rnY-2" style="edgeStyle=orthogonalEdgeStyle;rounded=0;orthogonalLoop=1;jettySize=auto;html=1;exitX=0.25;exitY=1;exitDx=0;exitDy=0;startArrow=classic;startFill=1;entryX=0.75;entryY=0;entryDx=0;entryDy=0;" parent="1" source="RlJ1LxmoNNV3T5dokcEm-94" target="RlJ1LxmoNNV3T5dokcEm-12" edge="1">
          <mxGeometry relative="1" as="geometry">
            <mxPoint x="1770" y="-60" as="targetPoint" />
          </mxGeometry>
        </mxCell>
        <mxCell id="nBktnoozZhkjOSuf-rnY-3" value="uses" style="edgeLabel;html=1;align=center;verticalAlign=middle;resizable=0;points=[];" parent="nBktnoozZhkjOSuf-rnY-2" vertex="1" connectable="0">
          <mxGeometry x="-0.5985" y="-2" relative="1" as="geometry">
            <mxPoint x="3" y="32" as="offset" />
          </mxGeometry>
        </mxCell>
        <mxCell id="nBktnoozZhkjOSuf-rnY-4" style="edgeStyle=orthogonalEdgeStyle;rounded=0;orthogonalLoop=1;jettySize=auto;html=1;entryX=1;entryY=0.5;entryDx=0;entryDy=0;exitX=0.25;exitY=1;exitDx=0;exitDy=0;jumpStyle=arc;jumpSize=11;" parent="1" source="0arSnTIY1_6R8fimPSZV-1" target="RlJ1LxmoNNV3T5dokcEm-46" edge="1">
          <mxGeometry relative="1" as="geometry">
            <Array as="points">
              <mxPoint x="2180" y="85" />
            </Array>
          </mxGeometry>
        </mxCell>
        <mxCell id="nBktnoozZhkjOSuf-rnY-5" value="uses" style="edgeLabel;html=1;align=center;verticalAlign=middle;resizable=0;points=[];" parent="nBktnoozZhkjOSuf-rnY-4" vertex="1" connectable="0">
          <mxGeometry x="-0.2779" y="-4" relative="1" as="geometry">
            <mxPoint as="offset" />
          </mxGeometry>
        </mxCell>
        <mxCell id="0arSnTIY1_6R8fimPSZV-4" style="edgeStyle=orthogonalEdgeStyle;rounded=0;orthogonalLoop=1;jettySize=auto;html=1;entryX=1;entryY=0.5;entryDx=0;entryDy=0;jumpStyle=arc;jumpSize=10;" parent="1" source="0arSnTIY1_6R8fimPSZV-1" target="c6rv0-CbIbIfdMLlh0Rp-39" edge="1">
          <mxGeometry relative="1" as="geometry">
            <Array as="points">
              <mxPoint x="2220" y="-135" />
            </Array>
          </mxGeometry>
        </mxCell>
        <mxCell id="0arSnTIY1_6R8fimPSZV-8" value="Evaluation" style="shape=folder;fontStyle=1;tabWidth=110;tabHeight=30;tabPosition=left;html=1;boundedLbl=1;labelInHeader=1;container=1;collapsible=0;recursiveResize=0;whiteSpace=wrap;" parent="1" vertex="1">
          <mxGeometry x="2290" y="-110" width="270" height="140" as="geometry" />
        </mxCell>
        <mxCell id="0arSnTIY1_6R8fimPSZV-9" value="&lt;b&gt;PipelineEvaluator&lt;/b&gt;" style="html=1;dropTarget=0;whiteSpace=wrap;" parent="0arSnTIY1_6R8fimPSZV-8" vertex="1">
          <mxGeometry x="30" y="60" width="210" height="50" as="geometry" />
        </mxCell>
        <mxCell id="0arSnTIY1_6R8fimPSZV-10" value="" style="shape=module;jettyWidth=8;jettyHeight=4;" parent="0arSnTIY1_6R8fimPSZV-9" vertex="1">
          <mxGeometry x="1" width="20" height="20" relative="1" as="geometry">
            <mxPoint x="-27" y="7" as="offset" />
          </mxGeometry>
        </mxCell>
        <mxCell id="0arSnTIY1_6R8fimPSZV-13" value="uses" style="edgeStyle=orthogonalEdgeStyle;rounded=0;orthogonalLoop=1;jettySize=auto;html=1;entryX=1;entryY=0.5;entryDx=0;entryDy=0;" parent="1" source="0arSnTIY1_6R8fimPSZV-9" target="RlJ1LxmoNNV3T5dokcEm-12" edge="1">
          <mxGeometry relative="1" as="geometry" />
        </mxCell>
        <mxCell id="0arSnTIY1_6R8fimPSZV-15" value="uses" style="edgeStyle=orthogonalEdgeStyle;rounded=0;orthogonalLoop=1;jettySize=auto;html=1;exitX=0.5;exitY=0;exitDx=0;exitDy=0;entryX=1;entryY=0.5;entryDx=0;entryDy=0;jumpStyle=arc;jumpSize=12;" parent="1" source="RlJ1LxmoNNV3T5dokcEm-94" target="0arSnTIY1_6R8fimPSZV-9" edge="1">
          <mxGeometry x="-0.209" relative="1" as="geometry">
            <Array as="points">
              <mxPoint x="1930" y="-510" />
              <mxPoint x="2620" y="-510" />
              <mxPoint x="2620" y="-25" />
            </Array>
            <mxPoint as="offset" />
          </mxGeometry>
        </mxCell>
      </root>
    </mxGraphModel>
  </diagram>
</mxfile>
